<?xml version="1.0" encoding="UTF-8"?>
<!DOCTYPE svg PUBLIC "-//W3C//DTD SVG 1.1//EN" "http://www.w3.org/Graphics/SVG/1.1/DTD/svg11.dtd">
<!-- Creator: CorelDRAW -->
<svg xmlns="http://www.w3.org/2000/svg" xml:space="preserve" width="21.59mm" height="5.334mm" version="1.1" style="shape-rendering:geometricPrecision; text-rendering:geometricPrecision; image-rendering:optimizeQuality; fill-rule:evenodd; clip-rule:evenodd"
viewBox="0 0 2159 533.4"
 xmlns:xlink="http://www.w3.org/1999/xlink"
 xmlns:xodm="http://www.corel.com/coreldraw/odm/2003">
 <defs>
  <style type="text/css">
   <![CDATA[
    .fil0 {fill:#0C7DC1}
    .fil1 {fill:#0C7DC1;fill-rule:nonzero}
   ]]>
  </style>
 </defs>
 <g id="Katman_x0020_1">
  <metadata id="CorelCorpID_0Corel-Layer"/>
  <g id="_105553119461824">
   <polygon class="fil0" points="1246.59,400.21 1527.28,400.21 1527.28,456.39 1190.47,456.39 1190.47,119.12 1527.28,119.12 1527.28,175.36 1246.59,175.36 "/>
   <polygon class="fil0" points="1611.54,216.34 1611.54,456.39 1555.37,456.39 1555.37,118.59 1723.83,216.87 1892.3,118.59 1892.3,456.39 1836.06,456.39 1836.06,216.34 1723.83,281.97 "/>
   <polygon class="fil0" points="890.02,400.08 1171.9,400.08 1171.9,456.45 833.38,456.45 833.38,119.32 890.02,119.32 "/>
   <path class="fil0" d="M232.34 164.99c34.04,0 61.8,27.62 61.8,61.86 0,34.24 -27.63,61.66 -61.8,61.66 -34.17,0 -61.66,-27.62 -61.66,-61.66 0,-34.04 27.63,-61.86 61.66,-61.86z"/>
   <g>
    <path class="fil0" d="M65 287.72l0 -168.6 56.18 0 0 168.6c0,31.26 10.9,57.7 32.85,79.51 21.87,21.94 48.31,32.91 79.37,32.91 31.06,0 57.57,-10.9 79.44,-32.91 21.95,-21.88 32.85,-48.31 32.85,-79.51l0 -168.6 56.24 0 0 168.6c0,46.73 -16.52,86.45 -49.37,119.36 -32.84,32.92 -72.5,49.37 -119.09,49.37 -46.6,0 -86.32,-16.45 -119.17,-49.37 -32.84,-32.91 -49.23,-72.57 -49.23,-119.36l-0.07 0zm0 0l0 0 0 0z"/>
   </g>
   <polygon class="fil0" points="486.07,217.2 486.07,456.39 429.96,456.39 429.96,119.52 430.55,120.05 710.71,282.1 710.71,119.52 766.83,119.52 766.83,456.39 710.71,456.39 710.71,346.87 "/>
   <rect class="fil1" x="1330.79" y="258.84" width="106.67" height="56.18"/>
  </g>
 </g>
</svg>
