<?xml version="1.0" encoding="iso-8859-1"?>
<!-- Uploaded to: SVG Repo, www.svgrepo.com, Generator: SVG Repo Mixer Tools -->
<svg fill="#000000" height="800px" width="800px" version="1.1" id="Capa_1" xmlns="http://www.w3.org/2000/svg" xmlns:xlink="http://www.w3.org/1999/xlink" 
	 viewBox="0 0 487.7 487.7" xml:space="preserve">
<g>
	<path d="M437.1,10.796H50.5c-27.9,0-50.5,22.6-50.5,50.5v276.3c0,27.9,22.6,50.5,50.5,50.5h11.2v81.4c0,6.6,8,9.9,12.6,5.2
		l86.6-86.6h276.3c27.9,0,50.5-22.6,50.5-50.5v-276.2C487.7,33.496,465,10.796,437.1,10.796z M156.2,225.796
		c-14.5,0-26.3-11.8-26.3-26.3s11.8-26.3,26.3-26.3s26.3,11.8,26.3,26.3S170.7,225.796,156.2,225.796z M243.8,225.796
		c-14.5,0-26.3-11.8-26.3-26.3s11.8-26.3,26.3-26.3c14.5,0,26.3,11.8,26.3,26.3S258.3,225.796,243.8,225.796z M331.4,225.796
		c-14.5,0-26.3-11.8-26.3-26.3s11.8-26.3,26.3-26.3s26.3,11.8,26.3,26.3S345.9,225.796,331.4,225.796z"/>
</g>
</svg>